# xmcd
# Track frame offsets:
# 150
# 15946
# 31011
# 44674
# 57380
# 71787
# 86682
# 103851
# 119747
# 136934
# 159206
#
# Disc length: 2316 seconds
# Revision: 0
# Processed by: cddbd v1.5.2PL0 Copyright (c) Steve Scherf et al.
# Submitted via: VisiTrax 2.11.2.271 - For more info visit www.synapsa.com
#
DISCID=91090a0b
DTITLE=Jake Owen - Barefoot Blue Jean Night
DYEAR=2011
DGENRE=
TTITLE0=Anywhere With You
TTITLE1=Keepin' It Country
TTITLE2=Wide Awake
TTITLE3=Barefoot Blue Jean Night
TTITLE4=Heaven
TTITLE5=Apple Pie Moonshine
TTITLE6=The Journey Of Your Life
TTITLE7=Alone With You
TTITLE8=Settin' The World On Fire
TTITLE9=Nobody Feelin' No Pain
TTITLE10=The One That Got Away
EXTD=
EXTT0=
EXTT1=
EXTT2=
EXTT3=
EXTT4=
EXTT5=
EXTT6=
EXTT7=
EXTT8=
EXTT9=
EXTT10=
PLAYORDER=
